<svg width="256" height="256" viewBox="0 0 67.733332 67.733332" version="1.1" xmlns="http://www.w3.org/2000/svg"
   xmlns:svg="http://www.w3.org/2000/svg">
   <style>
      .text {
         fill: #cba6f7;
      }

      @media (prefers-color-scheme: light) {
         .text {
            fill: #8839ef;
         }
      }
   </style>
   <path class="text"
      d="m 72.679687,165.23828 q -13.964843,10.05859 -23.144531,14.64844 -9.082031,4.58984 -14.257812,4.58984 -8.886719,0 -15.332032,-6.93359 Q 13.5,170.60937 13.5,157.03516 v -53.125 H 1.8789062 L -1.1484375,100.19922 6.46875,90.726562 H 13.5 V 71.585937 l 22.363281,-16.015625 4.003906,3.417969 v 31.738281 h 29.003907 l 3.808593,3.808594 q -1.855468,3.417969 -4.882812,7.324224 -3.027344,3.80859 -4.980469,5.46875 -2.34375,-1.17188 -7.03125,-2.2461 -4.589844,-1.17187 -8.886719,-1.17187 h -7.03125 v 43.75 q 0,9.47265 2.246094,13.3789 2.34375,3.90625 5.273438,3.90625 3.417968,0 7.8125,-1.46484 4.394531,-1.5625 12.695312,-6.15235 z"
      transform="matrix(0.50113344,0,0,0.50113344,17.044439,-26.452377)" aria-label="t" />
</svg>
